PathFileType	4	(X/Y/Z)	/Users/visionmauri/Downloads/Videos/OAW02-top_Sports2D/OAW02-top_Sports2D_px_person00.trc
DataRate	CameraRate	NumFrames	NumMarkers	Units	OrigDataRate	OrigDataStartFrame	OrigNumFrames
30.0	30.0	4	22	m	30.0	1618	2158
Frame#	Time	Hip			RHip			RKnee			RAnkle			RBigToe			RSmallToe			RHeel			LHip			LKnee			LAnkle			LBigToe			LSmallToe			LHeel			Neck			Head			Nose			RShoulder			RElbow			RWrist			LShoulder			LElbow			LWrist			
		X1	Y1	Z1	X2	Y2	Z2	X3	Y3	Z3	X4	Y4	Z4	X5	Y5	Z5	X6	Y6	Z6	X7	Y7	Z7	X8	Y8	Z8	X9	Y9	Z9	X10	Y10	Z10	X11	Y11	Z11	X12	Y12	Z12	X13	Y13	Z13	X14	Y14	Z14	X15	Y15	Z15	X16	Y16	Z16	X17	Y17	Z17	X18	Y18	Z18	X19	Y19	Z19	X20	Y20	Z20	X21	Y21	Z21	X22	Y22	Z22
1618	53.958337196723846	624.4379428790754	780.9323973597412	0.0	613.8916202747309	780.7581087766604	0.0	611.7871371546406	817.2375330593652	0.0	610.2616841613964	848.9475416938731	0.0	611.3339308386803	864.0798849891759	0.0	604.9805197698593	862.0759784263399	0.0	610.7302802536939	853.3414153815253	0.0	634.9260387304171	782.6156130361986	0.0	631.035093857653	820.8331235029805	0.0	626.6607902510065	855.4329061828333	0.0	625.4724616561311	867.8384305080195	0.0	631.4265967392176	867.3902240967689	0.0	624.8150532116072	859.4153402178898	0.0	630.1038325564897	720.7592253339045	0.0	633.3041813039175	693.3427146426859	0.0	631.5961155140661	717.0598218992197	0.0	609.8955241258595	725.4385461652753	0.0	599.6313428787397	753.1708406650971	0.0	593.2614160087294	779.4066554715741	0.0	650.067359465903	726.9204810268764	0.0	656.6638675367274	753.2362956291795	0.0	662.7088142979883	776.9041228836404	0.0
1619	53.99168598361923	624.6491737350487	780.7407885566428	0.0	614.0133886968177	780.4675759334191	0.0	612.5476114831876	817.6814333118793	0.0	611.2108172108428	850.7832970138834	0.0	611.720128026396	866.090115085156	0.0	605.5866168828392	863.9924979995684	0.0	611.8676243509861	855.829780566847	0.0	635.3588544553309	782.3880202296936	0.0	631.2428471057616	820.9626205919878	0.0	626.5113880639869	855.3598629166478	0.0	625.4181005666037	867.9531778921764	0.0	631.3289203745953	867.5025325320086	0.0	624.7888585233031	859.4029196108345	0.0	630.4103806377773	720.5667345125729	0.0	633.1314564349451	692.1718367369283	0.0	631.5258689803401	716.7071252911355	0.0	610.1268135637274	725.1326772981453	0.0	599.7683163346202	753.1621348258923	0.0	592.9394068456405	779.3493823981806	0.0	650.5563963651213	726.7318736915796	0.0	657.3463446971791	752.9589158063818	0.0	663.1703082877941	776.8005024455755	0.0
1620	54.02503477051461	624.860390017043	781.0548834068239	0.0	614.0756429280003	780.7312178324582	0.0	613.2384062117034	818.6297542213753	0.0	612.3230272931986	852.4374452858231	0.0	612.5130802414182	868.1283556556331	0.0	606.5659072092432	866.0592281118475	0.0	613.023351335413	858.0888896402721	0.0	635.7167912786675	782.6277663390623	0.0	631.555979852663	821.1628040911872	0.0	626.3622823732845	855.1384248936631	0.0	625.4311073484929	868.0554195827034	0.0	631.1487982920962	867.5139918938863	0.0	624.8953135359433	859.6165314013084	0.0	630.6838375150762	720.5471835107038	0.0	632.894672174793	689.8566622384437	0.0	631.3280428072535	716.2138455812891	0.0	610.4473139697662	724.8241434096002	0.0	599.8890120230336	753.0557489438738	0.0	592.7609663168528	779.1410387509554	0.0	650.9898406689849	726.3295975143932	0.0	658.038624804218	753.09632142489	0.0	663.3595460629982	777.1247213610452	0.0
1621	54.05838355740999	625.1405302673759	781.7074496378026	0.0	614.2152402293758	781.4633209087324	0.0	613.8314391578527	819.6905131799768	0.0	613.5924518244558	854.1106685203081	0.0	614.0246113051509	869.8061282149854	0.0	608.0992693509027	867.9704976477888	0.0	614.1190910891572	860.5317783090586	0.0	635.896333499628	783.2608012597304	0.0	631.8192013495161	821.3300902175841	0.0	626.2807888588825	854.7620241104574	0.0	625.6073031083116	868.1161338585598	0.0	631.1057915107373	867.3546197205952	0.0	625.0497059407312	860.012005736122	0.0	630.940587169473	720.8406823611854	0.0	632.6170623851156	687.9186428026783	0.0	631.1445350404424	715.7695442192918	0.0	610.8802536286223	724.800009813274	0.0	600.0345923547162	753.0265969228373	0.0	592.6097933939474	778.9488254759453	0.0	651.38363457121	726.1112097778753	0.0	658.7457369061373	753.4548021991445	0.0	663.7570299959148	777.7204673165796	0.0
